# xmcd
#
# Track frame offsets: 
#        150
#        24464
#        35036
#        49344
#        68236
#        87213
#        108181
#        130745
#        147142
#        166928
#        184232
#        195418
#        212636
#        232806
#        253738
#        269345
#        283945
#        317013
#        330027
#
# Disc length: 4621 seconds
#
# Revision: 0
# Processed by: cddbd v1.5.2PL0 Copyright (c) Steve Scherf et al.
# Submitted via: ExactAudioCopy v1.0b4
#
DISCID=0b120b13
DTITLE=Various Artist - Hard Core Harp
DYEAR=2017
DGENRE=Blues
TTITLE0=Paul Oscher - Alone With The Blues
TTITLE1=Billy Boy Arnold - Mellow Chick Swing
TTITLE2=James Harman - Bonetime
TTITLE3=Mark Hummel -It's Too Late Brother
TTITLE4=George Harmonica Smith - Crazy 'bout You Baby
TTITLE5=Harmonica Shah - She Used To Be Beautiful
TTITLE6=Snooky Pryor - Rock-A-While
TTITLE7=Sam Myers - Ninety Nine
TTITLE8=Willie 'Big Eyes' Smith - Don't Think I'm Crazy
TTITLE9=Billy Boy Arnold - I Wish You Would
TTITLE10=Al Lerman and The Juke Joint Rockers - Liquified Boogie
TTITLE11=Little Mac Simmons - Leaving In The Morning
TTITLE12=Sam Myers - Coming From The Old School
TTITLE13=Billy Boy Arnold - Sweet Honey Bee
TTITLE14=Harrison Kennedy - Afraid To Fail
TTITLE15=Rip Lee Pryor - Pitch A Boogie Woogie
TTITLE16=Snooky Pryor and Mel Brown - Headed South
TTITLE17=George Harmonica Smith - Juke
TTITLE18=Mark Hummel - Harpoventilating
EXTD=
EXTT0=
EXTT1=
EXTT2=
EXTT3=
EXTT4=
EXTT5=
EXTT6=
EXTT7=
EXTT8=
EXTT9=
EXTT10=
EXTT11=
EXTT12=
EXTT13=
EXTT14=
EXTT15=
EXTT16=
EXTT17=
EXTT18=
PLAYORDER=
